HIERARCHY
ROOT root
{
	OFFSET	0	13.1	24.9
	CHANNELS 6  Xposition Yposition Zposition Xrotation Yrotation Zrotation
	JOINT spine_1
	{
		OFFSET	0	9.99999	0
		CHANNELS 3  Xrotation Yrotation Zrotation
		JOINT spine_2
		{
			OFFSET	0	112	-10
			CHANNELS 3  Xrotation Yrotation Zrotation
			JOINT spine_3
			{
				OFFSET	0	206.5	19.3
				CHANNELS 3  Xrotation Yrotation Zrotation
				JOINT spine_4
				{
					OFFSET	0	110.4	14.6
					CHANNELS 3  Xrotation Yrotation Zrotation
					JOINT neck_1
					{
						OFFSET	0	71.8	-50.3
						CHANNELS 3  Xrotation Yrotation Zrotation
						JOINT neck_2
						{
							OFFSET	0	86.2	-25.8
							CHANNELS 3  Xrotation Yrotation Zrotation
							JOINT head_ee
							{
								OFFSET	0	179.8	-8.7
								CHANNELS 3  Xrotation Yrotation Zrotation
								End Site
								{
									OFFSET	1	0	0
								}
							}
						}
					}
					JOINT left_clavicle
					{
						OFFSET	-43.2	22.4	-70.8
						CHANNELS 3  Xrotation Yrotation Zrotation
						JOINT left_shoulder
						{
							OFFSET	-93.9	-5.79999	48.7
							CHANNELS 3  Xrotation Yrotation Zrotation
							JOINT left_elbow
							{
								OFFSET	-291.4	-30.8	15.2
								CHANNELS 3  Xrotation Yrotation Zrotation
								JOINT left_lowarm_twist
								{
									OFFSET	-110.7	-3.89999	13.6
									CHANNELS 3  Xrotation Yrotation Zrotation
									JOINT left_hand
									{
										OFFSET	-110.7	-3.89999	13.6
										CHANNELS 3  Xrotation Yrotation Zrotation
										JOINT left_ee
										{
											OFFSET	-80.8	-5.10001	12.1
											CHANNELS 3  Xrotation Yrotation Zrotation
											End Site
											{
												OFFSET	1	0	0
											}
										}
									}
								}
							}
						}
					}
					JOINT right_clavicle
					{
						OFFSET	43.2	22.4	-70.8
						CHANNELS 3  Xrotation Yrotation Zrotation
						JOINT right_shoulder
						{
							OFFSET	93.9	-5.79999	48.7
							CHANNELS 3  Xrotation Yrotation Zrotation
							JOINT right_elbow
							{
								OFFSET	291.4	-30.8	15.2
								CHANNELS 3  Xrotation Yrotation Zrotation
								JOINT right_lowarm_twist
								{
									OFFSET	110.7	-3.89999	13.6
									CHANNELS 3  Xrotation Yrotation Zrotation
									JOINT right_hand
									{
										OFFSET	110.7	-3.89999	13.6
										CHANNELS 3  Xrotation Yrotation Zrotation
										JOINT right_ee
										{
											OFFSET	80.8	-5.10001	12.1
											CHANNELS 3  Xrotation Yrotation Zrotation
											End Site
											{
												OFFSET	1	0	0
											}
										}
									}
								}
							}
						}
					}
				}
			}
		}
	}
	JOINT left_hip
	{
		OFFSET	-82.8	-127.5	0.300001
		CHANNELS 3  Xrotation Yrotation Zrotation
		JOINT left_knee
		{
			OFFSET	-28.2	-396.7	2.2
			CHANNELS 3  Xrotation Yrotation Zrotation
			JOINT left_ankle
			{
				OFFSET	-11.7	-411.3	35.4
				CHANNELS 3  Xrotation Yrotation Zrotation
				JOINT left_toes
				{
					OFFSET	0	-60	-88.6
					CHANNELS 3  Xrotation Yrotation Zrotation
					JOINT left_foot_ee
					{
						OFFSET	-22.5	-16.5	-42.2
						CHANNELS 3  Xrotation Yrotation Zrotation
						End Site
						{
							OFFSET	1	0	0
						}
					}
				}
			}
		}
	}
	JOINT right_hip
	{
		OFFSET	82.8	-127.5	0.300001
		CHANNELS 3  Xrotation Yrotation Zrotation
		JOINT right_knee
		{
			OFFSET	28.2	-396.7	2.2
			CHANNELS 3  Xrotation Yrotation Zrotation
			JOINT right_ankle
			{
				OFFSET	11.7	-411.3	35.4
				CHANNELS 3  Xrotation Yrotation Zrotation
				JOINT right_toes
				{
					OFFSET	0	-60	-88.6
					CHANNELS 3  Xrotation Yrotation Zrotation
					JOINT right_foot_ee
					{
						OFFSET	22.5	-16.5	-42.2
						CHANNELS 3  Xrotation Yrotation Zrotation
						End Site
						{
							OFFSET	1	0	0
						}
					}
				}
			}
		}
	}
}
MOTION
Frames: 14
Frame Time: 0.02
1211.35216152 727.573 -1741.93592572 -0.112927950176 18.7046752688 -0.136997941835 0.942519 0.234093 -0.320911 0.94254 0.254038 -0.305365 0.94116 0.308479 -0.250249 0.941171 0.265085 -0.295826 -3.00755 10.984 -2.39129 -2.75777 21.8303 -0.925214 -0.0 0.0 -0.0 6.06288 -9.97929 11.413 -22.1263 -12.9587 74.9937 0.208833 -5.90638 0.0107734 -8.78213 -0.390904 1.05141 1.27762 -16.2493 1.64617 -0.0 0.0 -0.0 11.3603 13.9407 -22.7779 -26.4727 40.0008 -46.302 0.964337 25.5336 -0.218509 -10.4819 0.484971 -1.24744 1.77342 16.8116 -4.71317 0.0 0.0 0.0 21.3877 6.41096 -0.537409 -61.6134 -2.3767 8.70075 36.9414 3.40596 -4.58565 35.6441 -0.0 -0.0 -0.0 0.0 -0.0 19.4225 20.5139 -8.92541 -22.2105 -0.262833 -3.37694 0.452704 10.8979 0.0701155 17.669 -0.0 -0.0 0.0 0.0 0.0 
1193.97081224 726.594 -1757.58190166 -0.977284078541 20.1514980708 0.486070941782 1.0691 0.294737 -0.283934 1.06909 0.312207 -0.264604 1.06762 0.357189 -0.199761 1.0677 0.321158 -0.253665 -3.84716 10.7268 -3.35935 -3.61117 22.1676 -1.81255 -0.0 0.0 -0.0 5.54126 -7.10984 10.4665 -23.9378 -14.6101 76.7078 0.2054 -5.80996 0.0104231 -10.0262 -0.45918 1.19516 1.77963 -15.6215 5.29283 -0.0 0.0 -0.0 11.768 15.0643 -23.6661 -24.969 40.2075 -45.4083 0.95092 25.2227 -0.212759 -9.86207 0.449992 -1.17627 1.73796 17.7423 -4.0535 0.0 0.0 0.0 24.1293 6.12252 -1.58567 -61.495 -2.36356 8.68805 36.4525 3.65763 -4.53938 33.9778 -0.0 -0.0 -0.0 0.0 -0.0 18.186 20.0171 -9.09099 -22.1264 -0.26432 -3.36412 4.20345 10.8512 0.643784 18.8335 -0.0 -0.0 0.0 0.0 0.0 
1166.84775639 733.631 -1771.36667589 -2.12325113494 21.4986295545 1.99368365066 1.56437 0.392006 -0.449161 1.56439 0.419792 -0.423307 1.56123 0.490336 -0.339094 1.56133 0.430629 -0.412278 -4.80797 10.5763 -3.78653 -4.61312 22.2715 -2.0866 -0.0 0.0 -0.0 5.08019 -4.50831 9.64435 -27.1642 -15.077 75.6071 0.238654 -6.74249 0.0140584 -10.8719 -0.50737 1.29202 2.42611 -15.0983 9.89984 -0.0 0.0 -0.0 12.3397 18.6137 -24.8067 -18.5369 42.2916 -45.5577 0.954341 25.3021 -0.214219 -9.16931 0.411816 -1.0963 1.91156 16.9415 -5.57981 0.0 0.0 0.0 28.6611 3.94202 -4.09698 -59.148 -2.10869 8.43091 33.1608 4.38732 -4.21766 31.7599 -0.0 -0.0 -0.0 0.0 -0.0 16.952 20.4874 -9.65687 -20.4213 -0.290392 -3.10379 10.2989 8.83176 1.52667 20.1069 -0.0 -0.0 0.0 0.0 0.0 
1159.68725714 724.586 -1773.49440347 -2.61186979229 21.7515347611 2.05405481785 1.56646 0.372625 -0.110139 1.56638 0.378879 -0.0862043 1.5658 0.388262 -0.0152611 1.566 0.380979 -0.0763892 -5.79036 10.6639 -2.96353 -5.67856 21.8794 -1.03131 -0.0 0.0 -0.0 4.80002 -1.86049 9.1984 -29.0882 -15.1738 74.5076 0.305712 -8.61167 0.023018 -11.2371 -0.528626 1.33363 2.94461 -14.0124 13.9587 -0.0 0.0 -0.0 12.6838 21.2805 -25.4134 -15.7923 42.8583 -47.011 0.846545 22.7507 -0.170317 -10.4466 0.482957 -1.24339 1.76469 18.4657 -3.90218 0.0 0.0 0.0 32.3706 2.56535 -5.35088 -57.326 -1.91827 8.2243 30.0126 6.38785 -3.88945 29.7488 -0.0 -0.0 -0.0 0.0 -0.0 16.0995 20.8292 -10.114 -18.5263 -0.310266 -2.81372 16.4237 6.42936 2.34594 20.5529 -0.0 -0.0 0.0 0.0 0.0 
1148.74137882 729.35 -1780.22618245 -2.99776963024 21.733922845 2.721346273 1.57502 0.322381 -0.154423 1.57497 0.331554 -0.133596 1.57418 0.35042 -0.0705781 1.57433 0.334876 -0.125035 -6.46497 10.5089 -2.64387 -6.39987 21.3993 -0.60554 -0.0 0.0 -0.0 4.6016 0.10649 8.88885 -30.5994 -15.2926 73.8833 0.354654 -9.96454 0.0309177 -11.5449 -0.546743 1.36859 3.31163 -13.2342 16.8815 -0.0 0.0 -0.0 13.0601 23.6559 -26.0718 -12.7581 43.5758 -48.2714 0.773778 20.9721 -0.143218 -11.3415 0.53475 -1.3455 1.64585 19.4667 -2.65567 0.0 0.0 0.0 35.0537 1.54628 -6.01983 -56.0354 -1.78743 8.07437 27.7532 7.77091 -3.64425 28.3593 -0.0 -0.0 -0.0 0.0 -0.0 15.0798 20.7949 -10.0643 -17.2052 -0.31844 -2.61119 21.0296 4.3096 2.91419 21.0207 -0.0 -0.0 0.0 0.0 0.0 
1114.43104921 730.107 -1804.95198043 -2.88967818811 23.9078629556 2.97715128681 1.66202 0.101951 -0.0913349 1.66202 0.107556 -0.0846624 1.66186 0.121151 -0.0637057 1.66187 0.10957 -0.0820398 -7.54279 9.74007 -2.43547 -7.53621 19.8777 -0.355839 -0.0 0.0 -0.0 4.44734 2.86158 8.69494 -32.3872 -15.2288 73.394 0.399631 -11.198 0.0391774 -11.8294 -0.563659 1.40083 3.8024 -11.78 21.0665 -0.0 0.0 -0.0 12.9989 27.1857 -25.5298 -7.31452 45.159 -47.7935 0.692813 18.9422 -0.115579 -12.4 0.598063 -1.46521 1.5061 20.7744 -1.13627 0.0 0.0 0.0 38.3102 -0.410983 -6.12912 -54.4775 -1.63408 7.8896 23.7886 9.45411 -3.19256 26.1677 -0.0 -0.0 -0.0 0.0 -0.0 13.1328 19.6378 -9.45675 -19.8711 -0.29715 -3.01964 26.7978 -1.71178 3.54844 21.6772 -0.0 -0.0 0.0 0.0 0.0 
1091.4723667 726.169 -1808.42318669 -2.9668956719 25.2732604877 3.03042317675 1.44866 0.0709551 -0.0776161 1.44866 0.0757502 -0.0729438 1.44857 0.0879604 -0.0576355 1.44857 0.077754 -0.0708039 -6.88565 9.13775 -2.28105 -6.85346 18.6149 -0.441168 -0.0 0.0 -0.0 4.20823 4.52534 8.30446 -33.9197 -15.2548 74.259 0.421149 -11.7845 0.0434642 -11.8215 -0.563188 1.39994 3.94496 -11.5332 22.2166 -0.0 0.0 -0.0 12.889 27.2333 -25.2707 -7.27533 45.0515 -48.2102 0.650857 17.8702 -0.102331 -12.6981 0.616296 -1.49873 1.45001 21.1462 -0.597852 0.0 0.0 0.0 40.3559 -2.06472 -7.17409 -51.3727 -1.34381 7.50941 22.6566 11.1054 -3.06283 24.8872 -0.0 -0.0 -0.0 0.0 -0.0 11.3342 19.317 -8.86209 -20.9231 -0.283524 -3.18048 28.5146 -4.03306 3.73009 22.2039 -0.0 -0.0 0.0 0.0 0.0 
1085.75108426 726.169 -1803.52032405 -2.99176251866 26.2629880449 3.08762168825 1.44866 0.0709551 -0.0776161 1.44866 0.0757502 -0.0729438 1.44857 0.0879604 -0.0576355 1.44857 0.077754 -0.0708039 -6.88565 9.13775 -2.28105 -6.85346 18.6149 -0.441168 -0.0 0.0 -0.0 4.20823 4.52534 8.30446 -33.9197 -15.2548 74.259 0.421149 -11.7845 0.0434642 -11.8215 -0.563188 1.39994 3.94496 -11.5332 22.2166 -0.0 0.0 -0.0 12.889 27.2333 -25.2707 -7.27533 45.0515 -48.2102 0.650857 17.8702 -0.102331 -12.6981 0.616296 -1.49873 1.45001 21.1462 -0.597852 0.0 0.0 0.0 40.3559 -2.06472 -7.17409 -51.3727 -1.34381 7.50941 22.6566 11.1054 -3.06283 24.8872 -0.0 -0.0 -0.0 0.0 -0.0 11.3342 19.317 -8.86209 -20.9231 -0.283524 -3.18048 28.5146 -4.03306 3.73009 22.2039 -0.0 -0.0 0.0 0.0 0.0 
1063.50989675 723.093 -1812.01019153 -4.16538264361 27.9105021022 4.24050646894 1.85723 0.00634277 -0.248705 1.85727 0.0221556 -0.247797 1.85717 0.0660032 -0.23987 1.85709 0.0272919 -0.247284 -6.52291 7.85921 -2.44698 -6.47926 16.3466 -0.921003 -0.0 0.0 -0.0 3.66971 5.78971 7.36099 -36.2568 -15.5565 75.7154 0.437208 -12.2206 0.0468038 -12.4003 -0.598084 1.46525 4.0672 -11.5222 23.1111 -0.0 0.0 -0.0 12.8361 27.1103 -25.1646 -5.52488 45.6028 -47.4056 0.640692 17.6085 -0.0992339 -11.8299 0.563687 -1.40088 1.29749 22.0019 0.79162 0.0 0.0 0.0 40.9262 -6.9358 -5.2856 -47.558 -1.0162 7.02197 19.1233 13.6671 -2.63818 25.4001 -0.0 -0.0 -0.0 0.0 -0.0 10.4113 18.8891 -8.54453 -18.571 -0.309907 -2.82058 28.0461 -5.15567 3.67641 22.1733 -0.0 -0.0 0.0 0.0 0.0 
1060.25783993 723.093 -1809.00178103 -4.18707166755 28.4647541358 4.28642218681 1.85723 0.00634277 -0.248705 1.85727 0.0221556 -0.247797 1.85717 0.0660032 -0.23987 1.85709 0.0272919 -0.247284 -6.52291 7.85921 -2.44698 -6.47926 16.3466 -0.921003 -0.0 0.0 -0.0 3.66971 5.78971 7.36099 -36.2568 -15.5565 75.7154 0.437208 -12.2206 0.0468038 -12.4003 -0.598084 1.46525 4.0672 -11.5222 23.1111 -0.0 0.0 -0.0 12.8361 27.1103 -25.1646 -5.52488 45.6028 -47.4056 0.640692 17.6085 -0.0992339 -11.8299 0.563687 -1.40088 1.29749 22.0019 0.79162 0.0 0.0 0.0 40.9262 -6.9358 -5.2856 -47.558 -1.0162 7.02197 19.1233 13.6671 -2.63818 25.4001 -0.0 -0.0 -0.0 0.0 -0.0 10.4113 18.8891 -8.54453 -18.571 -0.309907 -2.82058 28.0461 -5.15567 3.67641 22.1733 -0.0 -0.0 0.0 0.0 0.0 
1024.5847974 723.976 -1828.75175417 -4.57253939041 30.5577410794 5.23272761609 2.04772 0.0254523 -0.38175 2.04779 0.0496923 -0.379356 2.04745 0.115357 -0.364792 2.04727 0.0562971 -0.378432 -5.9953 6.21324 -1.82691 -5.96003 12.8285 -0.679417 -0.0 0.0 -0.0 4.59038 5.62332 9.04412 -36.3839 -14.533 78.0925 0.428068 -11.9726 0.0448882 -12.6987 -0.616334 1.4988 4.18045 -11.3174 24.0419 -0.0 0.0 -0.0 13.0963 26.5379 -25.8351 -5.0766 45.6383 -47.3201 0.669528 18.3489 -0.108135 -10.589 0.491088 -1.25969 0.861567 25.8241 5.3344 0.0 0.0 0.0 40.8377 -18.9738 -3.30562 -40.0149 -0.467713 6.00037 7.26962 19.3095 -1.0631 24.3618 -0.0 -0.0 -0.0 0.0 -0.0 9.25426 19.6243 -8.49837 -17.8828 -0.314831 -2.71509 28.5317 -6.3359 3.72907 22.1019 -0.0 -0.0 0.0 0.0 0.0 
1008.22878364 722.331 -1843.39091798 -5.22473768132 31.5222957396 6.5506913565 2.36146 0.064125 -0.391099 2.36154 0.0888815 -0.386227 2.36092 0.153147 -0.365537 2.36074 0.0934953 -0.385136 -5.96411 5.7612 -1.56811 -5.93524 11.8016 -0.505902 -0.0 0.0 -0.0 4.49893 5.19971 8.86437 -37.3341 -13.9413 77.3461 0.403326 -11.2989 0.0398982 -12.5399 -0.606599 1.48095 4.32203 -12.0407 24.7202 -0.0 0.0 -0.0 13.2339 26.2333 -26.1903 -3.77574 45.5299 -48.4305 0.684207 18.7234 -0.112802 -9.35948 0.4222 -1.1183 0.477392 28.5001 8.96686 0.0 0.0 0.0 39.2119 -28.103 -2.00045 -36.7169 -0.271217 5.53317 0.103127 23.9186 -0.0156583 23.2474 -0.0 -0.0 -0.0 0.0 -0.0 9.2066 20.8921 -10.9489 -20.1048 -0.294379 -3.05539 28.9671 -7.04025 3.777 22.35 -0.0 -0.0 0.0 0.0 0.0 
1003.84432028 722.331 -1839.00603567 -5.26373459879 32.2058243369 6.62456102704 2.36146 0.064125 -0.391099 2.36154 0.0888815 -0.386227 2.36092 0.153147 -0.365537 2.36074 0.0934953 -0.385136 -5.96411 5.7612 -1.56811 -5.93524 11.8016 -0.505902 -0.0 0.0 -0.0 4.49893 5.19971 8.86437 -37.3341 -13.9413 77.3461 0.403326 -11.2989 0.0398982 -12.5399 -0.606599 1.48095 4.32203 -12.0407 24.7202 -0.0 0.0 -0.0 13.2339 26.2333 -26.1903 -3.77574 45.5299 -48.4305 0.684207 18.7234 -0.112802 -9.35948 0.4222 -1.1183 0.477392 28.5001 8.96686 0.0 0.0 0.0 39.2119 -28.103 -2.00045 -36.7169 -0.271217 5.53317 0.103127 23.9186 -0.0156583 23.2474 -0.0 -0.0 -0.0 0.0 -0.0 9.2066 20.8921 -10.9489 -20.1048 -0.294379 -3.05539 28.9671 -7.04025 3.777 22.35 -0.0 -0.0 0.0 0.0 0.0 
997.227236656 722.331 -1832.18442176 -5.32613313721 33.2533511103 6.73996480671 2.36146 0.064125 -0.391099 2.36154 0.0888815 -0.386227 2.36092 0.153147 -0.365537 2.36074 0.0934953 -0.385136 -5.96411 5.7612 -1.56811 -5.93524 11.8016 -0.505902 -0.0 0.0 -0.0 4.49893 5.19971 8.86437 -37.3341 -13.9413 77.3461 0.403326 -11.2989 0.0398982 -12.5399 -0.606599 1.48095 4.32203 -12.0407 24.7202 -0.0 0.0 -0.0 13.2339 26.2333 -26.1903 -3.77574 45.5299 -48.4305 0.684207 18.7234 -0.112802 -9.35948 0.4222 -1.1183 0.477392 28.5001 8.96686 0.0 0.0 0.0 39.2119 -28.103 -2.00045 -36.7169 -0.271217 5.53317 0.103127 23.9186 -0.0156583 23.2474 -0.0 -0.0 -0.0 0.0 -0.0 9.2066 20.8921 -10.9489 -20.1048 -0.294379 -3.05539 28.9671 -7.04025 3.777 22.35 -0.0 -0.0 0.0 0.0 0.0 
